{
    "asset" : {
        "generator" : "Khronos glTF Blender I/O v3.2.43",
        "version" : "2.0"
    },
    "scene" : 0,
    "scenes" : [
        {
            "name" : "Scene",
            "nodes" : [
                0
            ]
        }
    ],
    "nodes" : [
        {
            "mesh" : 0,
            "name" : "probe_cut_axis"
        }
    ],
    "meshes" : [
        {
            "name" : "probe_cut_axis",
            "primitives" : [
                {
                    "attributes" : {
                        "POSITION" : 0
                    },
                    "indices" : 1
                }
            ]
        }
    ],
    "accessors" : [
        {
            "bufferView" : 0,
            "componentType" : 5126,
            "count" : 70560,
            "max" : [
                13.592731475830078,
                19.38532066345215,
                -4.999785423278809
            ],
            "min" : [
                -14.935820579528809,
                -16.27195167541504,
                -125.72821807861328
            ],
            "type" : "VEC3"
        },
        {
            "bufferView" : 1,
            "componentType" : 5125,
            "count" : 423096,
            "type" : "SCALAR"
        }
    ],
    "bufferViews" : [
        {
            "buffer" : 0,
            "byteLength" : 846720,
            "byteOffset" : 0
        },
        {
            "buffer" : 0,
            "byteLength" : 1692384,
            "byteOffset" : 846720
        }
    ],
    "buffers" : [
        {
            "byteLength" : 2539104,
            "uri" : "data:application/octet-stream;base64,"
        }
    ]
}
